<?xml version="1.0" standalone="no"?>
<!DOCTYPE svg PUBLIC "-//W3C//DTD SVG 20010904//EN"
 "http://www.w3.org/TR/2001/REC-SVG-20010904/DTD/svg10.dtd">
<svg version="1.0" xmlns="http://www.w3.org/2000/svg"
 width="1280.000000pt" height="900.000000pt" viewBox="0 0 1280.000000 900.000000"
 preserveAspectRatio="xMidYMid meet">
<metadata>
Created by potrace 1.15, written by Peter Selinger 2001-2017
</metadata>
<g transform="translate(0.000000,900.000000) scale(0.100000,-0.100000)"
fill="#009688" stroke="none">
<path d="M12100 8789 c-1652 -858 -2612 -1400 -3495 -1972 -328 -213 -778
-527 -1025 -716 -83 -64 -96 -71 -105 -56 -42 69 -167 253 -227 333 -630 840
-1601 1403 -2683 1557 -287 40 -708 45 -990 11 -868 -106 -1660 -468 -2299
-1051 -557 -508 -976 -1223 -1161 -1980 -80 -328 -110 -586 -110 -940 1 -393
46 -709 151 -1070 273 -935 841 -1708 1635 -2228 882 -578 1936 -796 2949
-611 1104 202 2070 837 2665 1754 663 1022 828 2263 450 3395 -29 88 -74 210
-100 270 -25 61 -48 115 -50 120 -3 6 68 65 158 132 1058 793 2349 1560 4427
2628 201 103 369 191 374 196 10 9 -195 409 -209 408 -5 -1 -165 -82 -355
-180z m-7590 -1098 c1062 -148 1992 -699 2592 -1536 68 -95 178 -267 178 -277
0 -4 -60 -55 -132 -115 -480 -389 -876 -755 -1382 -1273 -398 -409 -910 -997
-1366 -1568 -101 -128 -156 -189 -161 -180 -7 14 -1083 2591 -1152 2760 -21
54 -42 96 -46 94 -41 -21 -1059 -622 -1068 -630 -10 -9 13 -55 103 -209 112
-190 117 -197 138 -184 66 43 608 358 611 356 1 -2 173 -411 380 -909 799
-1918 907 -2175 913 -2187 5 -7 82 84 202 240 906 1169 1612 1969 2330 2642
363 339 836 744 852 727 12 -13 106 -266 143 -388 270 -890 196 -1824 -211
-2672 -364 -761 -950 -1352 -1714 -1731 -1093 -541 -2329 -533 -3430 24 -378
192 -687 419 -985 726 -508 522 -852 1187 -990 1911 -126 667 -61 1367 187
2003 446 1144 1385 1975 2583 2285 168 43 387 83 545 100 58 5 121 12 140 14
19 2 159 3 310 1 214 -2 309 -8 430 -24z"/>
</g>
</svg>
